<svg xmlns="http://www.w3.org/2000/svg" xmlns:xlink="http://www.w3.org/1999/xlink" viewBox="0 0 800 600" width="800" height="600"><defs><clipPath id="b"><path d="M448.5 222.9c-73.9 0-139.8 28.1-151.8 63.9 12 35.9 77.9 64 151.8 64s139.8-28.1 151.9-64c-12.1-35.8-77.9-63.9-151.9-63.9z" fill="none"/></clipPath><linearGradient id="c" data-name="Dégradé sans nom 6" x1="407.2" y1="347.41" x2="490.56" y2="168.65" gradientUnits="userSpaceOnUse"><stop offset="0" stop-color="#2c3f49"/><stop offset="1" stop-color="#2c3f49" stop-opacity="0"/></linearGradient><linearGradient id="d" data-name="Dégradé sans nom 47" x1="479.27" y1="201.58" x2="405.42" y2="275.42" gradientUnits="userSpaceOnUse"><stop offset="0" stop-color="#fff" stop-opacity=".1"/><stop offset="1" stop-color="#fff"/></linearGradient><linearGradient id="a" data-name="Dégradé sans nom 33" x1="566.52" y1="352.72" x2="506.1" y2="223.15" gradientUnits="userSpaceOnUse"><stop offset="0" stop-color="#fff"/><stop offset="1" stop-color="#fff" stop-opacity="0"/></linearGradient><linearGradient id="e" x1="509.93" y1="307.44" x2="463.1" y2="207" xlink:href="#a"/><radialGradient id="f" data-name="Dégradé sans nom 45" cx="343.51" cy="297.4" r="161.9" gradientTransform="matrix(.92 0 0 .41 133.5 151)" gradientUnits="userSpaceOnUse"><stop offset="0" stop-color="#fff"/><stop offset=".8" stop-color="#fff" stop-opacity="0"/></radialGradient><linearGradient id="g" x1="222.07" y1="412.94" x2="201.62" y2="372.74" gradientUnits="userSpaceOnUse"><stop offset=".52" stop-color="#fff" stop-opacity=".4"/><stop offset=".79" stop-color="#fff" stop-opacity=".97"/><stop offset=".9" stop-color="#fff" stop-opacity=".4"/></linearGradient><linearGradient id="h" data-name="Dégradé sans nom 17" x1="162.1" y1="491.86" x2="255.32" y2="291.94" gradientUnits="userSpaceOnUse"><stop offset="0" stop-color="#2c3f49" stop-opacity="0"/><stop offset="1" stop-color="#2c3f49"/></linearGradient></defs><g fill="#2c3f49"><path d="M595.9 441.4L159 223l3.9-1.9 436.8 218.4-3.8 1.9zm38.5-19.2L197.5 203.7l3.9-1.9 436.8 218.4-3.8 2zm38.5-19.3L236 184.5l3.9-1.9L676.7 401l-3.8 1.9zm38.5-19.2L274.5 165.2l3.9-1.9 436.8 218.5-3.8 1.9zM137 239.5l31.5 15.8 7.5-3.7-31.6-15.8-7.4 3.7zm39 19.5l31.5 15.8 7.5-3.7-31.6-15.8-7.4 3.7zm39 19.6l29.7 14.8 7.4-3.7-29.7-14.9-7.4 3.8zm42.7 21.3l26 13 7.4-3.7-26-13-7.4 3.7zm37.2 18.6l27.8 13.9 7.4-3.7-27.8-13.9-7.4 3.7zm39 19.5l31.5 15.8 7.5-3.7-31.6-15.8-7.4 3.7zm39 19.5l29.7 14.9 7.4-3.8-29.7-14.8-7.4 3.7zm37.1 18.6l31.6 15.8 7.4-3.7-31.5-15.8-7.5 3.7zm42.8 21.3l27.8 14 7.4-3.7-27.8-14-7.4 3.7zm39 19.5l27.8 14 7.5-3.7-27.9-14-7.4 3.7zm46.4 15.8l-7.4 3.8 29.7 14.8 7.4-3.7-29.7-14.9z" opacity=".1"/><ellipse cx="262.9" cy="157.5" rx="8.5" ry="4.2" opacity=".1"/><ellipse cx="224.4" cy="176.7" rx="8.5" ry="4.2" opacity=".1"/><ellipse cx="185.9" cy="196" rx="8.5" ry="4.2" opacity=".1"/><ellipse cx="147.4" cy="215.2" rx="8.5" ry="4.2" opacity=".1"/></g><g fill="#f0bd32"><path d="M221.3 241.3l25.7-50.9 5 .6-24.5 48.4 85 9.7 68.4 20.8 73.2 8.8 3.8 43.7 75.6 26.3 102.6 2.9 44.6 38.9-4.5 1.3L633 354l-101.2-2.8-78.9-27.4-3.8-43.1-70.6-8.5-68.3-20.8-88.9-10.1z"/><ellipse cx="249.5" cy="188.8" rx="9.7" ry="4.9"/><ellipse cx="224.4" cy="240.3" rx="9.7" ry="4.9"/><ellipse cx="311.4" cy="250.3" rx="9.7" ry="4.9"/><ellipse cx="379.9" cy="271.1" rx="9.7" ry="4.9"/><ellipse cx="451.3" cy="279.6" rx="9.7" ry="4.9"/><ellipse cx="455.4" cy="323.1" rx="9.7" ry="4.9"/><ellipse cx="532.7" cy="349.9" rx="9.7" ry="4.9"/><ellipse cx="634.3" cy="352.6" rx="9.7" ry="4.9"/><ellipse cx="676.6" cy="392.1" rx="9.7" ry="4.9"/></g><g fill="#e26252"><path d="M451.1 288.4c-9.9 0-17.9-4-17.9-8.9s8-8.9 17.9-8.9 17.8 4 17.8 8.9-8 8.9-17.8 8.9zm0-16c-7.8 0-14.2 3.2-14.2 7.1s6.4 7.1 14.2 7.1 14.1-3.2 14.1-7.1-6.3-7.1-14.1-7.1z"/><path d="M451.1 291.8c-13.6 0-24.7-5.5-24.7-12.3s11.1-12.3 24.7-12.3 24.6 5.5 24.6 12.3-11 12.3-24.6 12.3zm0-22.8c-11.6 0-21 4.7-21 10.5s9.4 10.5 21 10.5 21-4.7 21-10.5-9.5-10.5-21-10.5z"/><path d="M451.1 296.4c-18.7 0-33.8-7.6-33.8-16.9s15.1-16.9 33.8-16.9 33.8 7.6 33.8 16.9-15.2 16.9-33.8 16.9zm0-32c-16.7 0-30.2 6.8-30.2 15.1s13.5 15.1 30.2 15.1 30.1-6.8 30.1-15.1-13.5-15.1-30.1-15.1z"/></g><g clip-path="url(#b)"><path d="M448.5 237.1c-90.2 0-163.4 36.6-163.4 81.7v51.4a43.6 43.6 0 0 0 4.3 18.6L84.3 492.6a12 12 0 0 0-4.5 2.3c-3 2.4-4.8 6.2-4.8 11.1 0 10.7 8.6 22.1 19.2 25.6a15.5 15.5 0 0 0 5.4 1 12.7 12.7 0 0 0 4.8-.6 10.1 10.1 0 0 0 3-1.3L322.2 422c30 18.3 75.4 29.9 126.3 29.9 90.3 0 163.5-36.6 163.5-81.7v-51.4c0-45.1-73.2-81.7-163.5-81.7zm0 150.3c-76.1 0-139.4-27.7-151.8-64 12.4-36.3 75.7-63.9 151.8-63.9s139.5 27.6 151.9 63.9c-12.4 36.3-75.7 64-151.9 64z" fill="#2c3f49" opacity=".2"/></g><path d="M448.5 192.1c-90.2 0-163.4 36.5-163.4 81.7v51.3a43.3 43.3 0 0 0 4.3 18.6L84.3 447.6a11.8 11.8 0 0 0-4.5 2.2c-3 2.4-4.8 6.3-4.8 11.2 0 10.6 8.6 22.1 19.2 25.6a22.1 22.1 0 0 0 5.4 1 18.6 18.6 0 0 0 4.8-.6 10.3 10.3 0 0 0 3-1.4L322.2 377c30 18.2 75.4 29.8 126.3 29.8 90.3 0 163.5-36.5 163.5-81.7v-51.3c0-45.2-73.2-81.7-163.5-81.7zm0 150.2c-76.1 0-139.4-27.6-151.8-63.9 12.4-36.4 75.7-64 151.8-64s139.5 27.6 151.9 64c-12.4 36.3-75.7 63.9-151.9 63.9z" fill="#2c3f49" opacity=".2"/><path d="M448.5 177c-90.2 0-163.4 36.6-163.4 81.8v46.6c0 45.2 73.2 81.8 163.4 81.8S612 350.6 612 305.4v-46.6c0-45.2-73.2-81.8-163.5-81.8zm0 158.8c-85.1 0-154-34.5-154-77s68.9-77.1 154-77.1 154.1 34.5 154.1 77.1-69 77-154.1 77z" fill="#2c3f49"/><path d="M612 310.1v-46.7c0-45.1-73.2-81.7-163.5-81.7s-163.4 36.6-163.4 81.7v46.7c0 45.1 73.2 81.7 163.4 81.7S612 355.2 612 310.1zm-9.4 0c0 42.6-69 77.1-154.1 77.1s-154-34.5-154-77.1 68.9-77 154-77 154.1 34.5 154.1 77z" fill="#2c3f49"/><path d="M448.5 177c-90.2 0-163.4 36.6-163.4 81.8s73.2 81.7 163.4 81.7S612 303.9 612 258.8 538.8 177 448.5 177zm0 158.8c-85.1 0-154-34.5-154-77s68.9-77.1 154-77.1 154.1 34.5 154.1 77.1-69 77-154.1 77z" fill="#5c6670"/><path d="M448.5 177c-90.2 0-163.4 36.6-163.4 81.8s73.2 81.7 163.4 81.7S612 303.9 612 258.8 538.8 177 448.5 177zm0 158.8c-85.1 0-154-34.5-154-77s68.9-77.1 154-77.1 154.1 34.5 154.1 77.1-69 77-154.1 77z" opacity=".7" fill="url(#c)"/><ellipse cx="448.5" cy="271.8" rx="151.9" ry="64" fill="#fff" opacity=".2"/><path d="M448.5 212.1c-62 0-93.3 20.2-93.3 20.2s31.3-11.7 93.3-11.7 93.4 11.7 93.4 11.7-31.3-20.2-93.4-20.2z" opacity=".8" fill="url(#d)"/><path d="M548.1 317.5a54.6 54.6 0 0 0 6-2.7l-50.6-101.9-8.1-1.4z" opacity=".2" fill="url(#a)"/><path d="M532.3 323.4L475.5 209c-8.8-.7-17.8-1.1-27-1.1l60.6 121.7a217.8 217.8 0 0 0 23.2-6.2z" opacity=".2" fill="url(#e)"/><ellipse cx="448.5" cy="271.8" rx="151.9" ry="64" opacity=".2" fill="url(#f)"/><path d="M324.3 322a28.4 28.4 0 0 0-5.3-2.5l-1.4-.4a15.8 15.8 0 0 0-11.3 1L79.8 434.8l27.6 35.8 221.8-112.1s9-4.9 9-13.4-5.9-18.1-13.9-23.1z" fill="#2c3f49"/><path d="M324.3 322a28.4 28.4 0 0 0-5.3-2.5l-1.4-.4a15.8 15.8 0 0 0-11.3 1L79.8 434.8l27.6 35.8 221.8-112.1s9-4.9 9-13.4-5.9-18.1-13.9-23.1z" opacity=".25" fill="url(#g)"/><path d="M99.6 435.6a22.4 22.4 0 0 0-5.4-2.6l-1.4-.4C82.9 430.1 75 435.8 75 446s8.6 22.1 19.2 25.6a22.1 22.1 0 0 0 5.4 1 18.6 18.6 0 0 0 4.8-.6c5.4-1.7 9-6.5 9-13.4 0-8.8-5.8-18.1-13.8-23z" fill="#2c3f49"/><path d="M324.3 322a28.4 28.4 0 0 0-5.3-2.5l-1.4-.4a15.8 15.8 0 0 0-11.3 1L79.8 434.8l27.6 35.8 221.8-112.1s9-4.9 9-13.4-5.9-18.1-13.9-23.1z" opacity=".7" fill="url(#h)"/><g><g fill="#eb3d41"><path d="M451.1 288.4c-9.9 0-17.9-4-17.9-8.9s8-8.9 17.9-8.9 17.8 4 17.8 8.9-8 8.9-17.8 8.9zm0-16c-7.8 0-14.2 3.2-14.2 7.1s6.4 7.1 14.2 7.1 14.1-3.2 14.1-7.1-6.3-7.1-14.1-7.1z"/><path d="M451.1 291.8c-13.6 0-24.7-5.5-24.7-12.3s11.1-12.3 24.7-12.3 24.6 5.5 24.6 12.3-11 12.3-24.6 12.3zm0-22.8c-11.6 0-21 4.7-21 10.5s9.4 10.5 21 10.5 21-4.7 21-10.5-9.5-10.5-21-10.5z"/><path d="M451.1 296.4c-18.7 0-33.8-7.6-33.8-16.9s15.1-16.9 33.8-16.9 33.8 7.6 33.8 16.9-15.2 16.9-33.8 16.9zm0-32c-16.7 0-30.2 6.8-30.2 15.1s13.5 15.1 30.2 15.1 30.1-6.8 30.1-15.1-13.5-15.1-30.1-15.1z"/></g><g fill="#e26252"><path d="M451.1 288.4c-9.9 0-17.9-4-17.9-8.9s8-8.9 17.9-8.9 17.8 4 17.8 8.9-8 8.9-17.8 8.9zm0-16c-7.8 0-14.2 3.2-14.2 7.1s6.4 7.1 14.2 7.1 14.1-3.2 14.1-7.1-6.3-7.1-14.1-7.1z"/><path d="M451.1 291.8c-13.6 0-24.7-5.5-24.7-12.3s11.1-12.3 24.7-12.3 24.6 5.5 24.6 12.3-11 12.3-24.6 12.3zm0-22.8c-11.6 0-21 4.7-21 10.5s9.4 10.5 21 10.5 21-4.7 21-10.5-9.5-10.5-21-10.5z"/><path d="M451.1 296.4c-18.7 0-33.8-7.6-33.8-16.9s15.1-16.9 33.8-16.9 33.8 7.6 33.8 16.9-15.2 16.9-33.8 16.9zm0-32c-16.7 0-30.2 6.8-30.2 15.1s13.5 15.1 30.2 15.1 30.1-6.8 30.1-15.1-13.5-15.1-30.1-15.1z"/></g></g><g><path d="M674.9 315.3a24.2 24.2 0 0 0-24.2 24.1 24.6 24.6 0 0 0 2.1 9.8c5.4 11.7 17.7 27 20.5 30.4a1.7 1.7 0 0 0 1.4.8l4.5.4c.4 0 11.7-18.4 17.7-31.6a23 23 0 0 0 2.1-9.8c0-10.7-19.8-24.1-19.8-24.1zm0 36.6a12.6 12.6 0 1 1 12.5-12.5 12.6 12.6 0 0 1-12.5 12.5zm0 0" fill="#ff5850"/><path d="M679.2 315.3a24.2 24.2 0 0 0-24.2 24.1 23.1 23.1 0 0 0 2.2 9.8c6 13.2 17.6 27.2 21 31.1a1.2 1.2 0 0 0 1 .5 1.4 1.4 0 0 0 1-.5c3.4-3.9 15-17.9 21-31.1a23 23 0 0 0 2.1-9.8 24.1 24.1 0 0 0-24.1-24.1zm0 36.6a12.6 12.6 0 1 1 12.5-12.5 12.6 12.6 0 0 1-12.5 12.5zm0 0" fill="#eb3d41"/><path d="M677 351.7l2.2.2a12.6 12.6 0 0 0 0-25.1l-2.2.2a12.7 12.7 0 0 1 10.4 12.4 12.5 12.5 0 0 1-10.4 12.3z" fill="#c4373e"/></g><g><path d="M246.6 112.4a24.1 24.1 0 0 0-24.1 24.1 23.8 23.8 0 0 0 2.1 9.9c5.3 11.7 17.6 27 20.4 30.4a2.8 2.8 0 0 0 1.5.8l4.4.4c.4 0 11.7-18.4 17.7-31.6a23.8 23.8 0 0 0 2.1-9.9c0-10.6-19.8-24.1-19.8-24.1zm0 36.7a12.6 12.6 0 1 1 12.5-12.6 12.5 12.5 0 0 1-12.5 12.6zm0 0" fill="#354954"/><path d="M250.9 112.4a24.1 24.1 0 0 0-24.1 24.1 23.8 23.8 0 0 0 2.1 9.9c6 13.2 17.6 27.1 21 31.1a1.2 1.2 0 0 0 2 0c3.4-4 15-17.9 21-31.1a23.8 23.8 0 0 0 2.1-9.9 24.1 24.1 0 0 0-24.1-24.1zm0 36.7" fill="#425b66"/><g fill="#273840"><path d="M249.4 145.5h-1.5v.8h.7l-1.3 1.2a4 4 0 0 1-5.6-5.6l5.6-5.6a4 4 0 0 1 5.7 0l.3.3h-.7v1.4h1.5l.4-.3 2.6-2.6a6.6 6.6 0 0 0-1.2-1.7 8 8 0 0 0-11.3 0l-5.6 5.7a8 8 0 0 0 11.3 11.3l4.2-4.3a10 10 0 0 1-5.1-.6z"/><path d="M264.3 125a7.9 7.9 0 0 0-11.2 0l-4.3 4.3a8.3 8.3 0 0 1 3.5.1v.4h1.5l2-2a4 4 0 0 1 5.6 0 3.9 3.9 0 0 1 0 5.6l-5.6 5.7a4 4 0 0 1-5.6 0 4.2 4.2 0 0 1-1-1.7h-1.5l-.3 1.5h.1l-1.4 1.3a9.5 9.5 0 0 0 1.2 1.6 8 8 0 0 0 11.3 0l5.6-5.6a7.9 7.9 0 0 0 .1-11.2z"/></g><path d="M262.8 136.3l-5.6 5.6a8 8 0 0 1-11.3 0 9.5 9.5 0 0 1-1.2-1.6l2.6-2.6.5-.3a3.3 3.3 0 0 0 1 1.7 4 4 0 0 0 5.6 0l5.6-5.7a3.9 3.9 0 0 0 0-5.6 4 4 0 0 0-5.6 0l-2 2a9.8 9.8 0 0 0-5.1-.5l4.3-4.3a8 8 0 0 1 11.2 11.3zm-14.9 9.2l-2 2a4 4 0 0 1-5.6-5.6l5.6-5.6a4 4 0 0 1 5.7 0 3.7 3.7 0 0 1 1 1.7l.4-.3 2.6-2.6a6.6 6.6 0 0 0-1.2-1.7 8 8 0 0 0-11.3 0l-5.6 5.7a8 8 0 0 0 11.3 11.3l4.2-4.3a10 10 0 0 1-5.1-.6zm0 0" fill="#5c6670"/><path d="M262.8 136.3l-5.6 5.6a8 8 0 0 1-11.3 0 9.5 9.5 0 0 1-1.2-1.6l2.6-2.6.5-.3a3.3 3.3 0 0 0 1 1.7 4 4 0 0 0 5.6 0l5.6-5.7a3.9 3.9 0 0 0 0-5.6 4 4 0 0 0-5.6 0l-2 2a9.8 9.8 0 0 0-5.1-.5l4.3-4.3a8 8 0 0 1 11.2 11.3zm-14.9 9.2l-2 2a4 4 0 0 1-5.6-5.6l5.6-5.6a4 4 0 0 1 5.7 0 3.7 3.7 0 0 1 1 1.7l.4-.3 2.6-2.6a6.6 6.6 0 0 0-1.2-1.7 8 8 0 0 0-11.3 0l-5.6 5.7a8 8 0 0 0 11.3 11.3l4.2-4.3a10 10 0 0 1-5.1-.6zm0 0" fill="#fff"/></g></svg>