<?xml version="1.0" encoding="iso-8859-1"?>
<!-- Generator: Adobe Illustrator 19.0.0, SVG Export Plug-In . SVG Version: 6.00 Build 0)  -->
<svg version="1.1" id="Layer_1" xmlns="http://www.w3.org/2000/svg" xmlns:xlink="http://www.w3.org/1999/xlink" x="0px" y="0px"
	 viewBox="0 0 509.287 509.287" style="enable-background:new 0 0 509.287 509.287;" xml:space="preserve">
<circle style="fill:#494CB5;" cx="254.644" cy="254.644" r="254.644"/>
<path style="fill:#DEDEDF;" d="M389.595,56.286H119.693c-8.816,0-15.597,7.121-15.597,15.597v365.181
	c0,8.816,7.121,15.597,15.597,15.597h269.902c8.816,0,15.597-7.121,15.597-15.597V71.883
	C405.192,63.407,398.411,56.286,389.595,56.286z"/>
<path style="fill:#F1F3F7;" d="M389.595,56.286H119.693c-8.816,0-15.597,7.121-15.597,15.597v6.781
	c0-8.816,7.121-15.597,15.597-15.597h269.902c8.816,0,15.597,7.121,15.597,15.597v-6.781
	C405.192,63.407,398.411,56.286,389.595,56.286z"/>
<rect x="127.83" y="109.86" style="fill:#FCFCFD;" width="253.287" height="316.016"/>
<rect x="147.158" y="129.865" style="fill:#6EB1E1;" width="214.972" height="44.419"/>
<g>
	<rect x="147.158" y="193.611" style="fill:#DEDEDF;" width="101.044" height="14.919"/>
	<rect x="147.158" y="226.162" style="fill:#DEDEDF;" width="214.972" height="14.919"/>
	<rect x="147.158" y="291.603" style="fill:#DEDEDF;" width="107.486" height="14.919"/>
	<rect x="147.158" y="324.154" style="fill:#DEDEDF;" width="214.972" height="14.919"/>
	<rect x="147.158" y="356.705" style="fill:#DEDEDF;" width="214.972" height="14.919"/>
	<rect x="147.158" y="389.256" style="fill:#DEDEDF;" width="149.87" height="14.919"/>
</g>
<circle style="fill:#FBD303;" cx="133.934" cy="88.159" r="6.103"/>
<circle style="fill:#F0582F;" cx="152.244" cy="88.159" r="6.103"/>
<circle style="fill:#29B36F;" cx="170.215" cy="88.159" r="6.103"/>
<g>
	<path style="fill:#F8B517;" d="M366.538,180.048c-47.47,0-86.125,38.654-86.125,86.124s38.654,86.125,86.125,86.125
		s86.124-38.654,86.124-86.125S414.008,180.048,366.538,180.048z M366.538,328.223c-34.246,0-62.05-27.804-62.05-62.05
		s27.804-62.05,62.05-62.05c34.246,0,62.05,27.804,62.05,62.05S400.784,328.223,366.538,328.223z"/>
	<rect x="56.625" y="254.644" style="fill:#F8B517;" width="235.317" height="23.396"/>
	<rect x="67.475" y="271.258" style="fill:#F8B517;" width="21.701" height="50.861"/>
	<rect x="88.837" y="271.258" style="fill:#F8B517;" width="21.701" height="37.976"/>
	<rect x="127.152" y="271.258" style="fill:#F8B517;" width="21.701" height="50.861"/>
</g>
<g>
</g>
<g>
</g>
<g>
</g>
<g>
</g>
<g>
</g>
<g>
</g>
<g>
</g>
<g>
</g>
<g>
</g>
<g>
</g>
<g>
</g>
<g>
</g>
<g>
</g>
<g>
</g>
<g>
</g>
</svg>
