<?xml version="1.0" encoding="iso-8859-1"?>
<!-- Generator: Adobe Illustrator 19.0.0, SVG Export Plug-In . SVG Version: 6.00 Build 0)  -->
<svg version="1.1" id="Layer_1" xmlns="http://www.w3.org/2000/svg" xmlns:xlink="http://www.w3.org/1999/xlink" x="0px" y="0px"
	 viewBox="-49 141 512 512" style="enable-background:new -49 141 512 512;" xml:space="preserve">
<path style="fill:#B2D9FF;" d="M4.436,579.646c-15.518,0-31.139-3.312-45.747-10.133c-4.021-1.878-6.844-5.634-7.528-10.019
	c-0.686-4.385,0.858-8.823,4.114-11.838c1.623-1.502,2.912-2.767,4.056-3.981c21.623-22.945,28.138-55.548,17.004-85.083
	c-0.361-0.961-0.608-1.951-0.741-2.948c-8.299-20.76-12.504-42.703-12.504-65.277c0-97.071,78.975-176.044,176.046-176.044
	c7.36,0,13.328,5.967,13.328,13.328s-5.968,13.328-13.328,13.328c-82.375,0-149.39,67.015-149.39,149.389
	c0,20.217,3.966,39.822,11.79,58.271c0.56,1.319,0.896,2.703,1.012,4.098c11.45,33.766,5.767,70.149-14.925,98.517
	c26.639,5.607,55.008-2.375,74.783-22.132c3.929-3.926,9.884-5.003,14.939-2.703c19.456,8.851,40.244,13.339,61.791,13.339
	c7.36,0,13.328,5.967,13.328,13.328s-5.968,13.328-13.328,13.328c-22.382,0-44.082-4.116-64.632-12.247
	C54.67,570.868,29.696,579.646,4.436,579.646z"/>
<path style="fill:none;stroke:#507C5C;stroke-width:20;stroke-linecap:round;stroke-linejoin:round;stroke-miterlimit:10;" d="
	M301.852,390.367"/>
<path style="fill:#B2D9FF;" d="M409.408,579.679C409.407,579.679,409.408,579.679,409.408,579.679
	c-25.899,0-50.397-8.996-69.921-25.511c-20.548,8.129-42.243,12.243-64.622,12.243c-25.606,0-50.31-5.387-73.432-16.012
	c-4.731-2.174-7.762-6.904-7.762-12.11c0-5.206,3.031-9.936,7.762-12.11c52.904-24.313,87.09-77.622,87.09-135.813
	s-34.183-111.5-87.09-135.812c-4.731-2.174-7.762-6.904-7.762-12.11c0-5.206,3.031-9.936,7.762-12.11
	c23.121-10.625,47.827-16.012,73.432-16.012c97.073,0,176.046,78.973,176.046,176.045c0,22.575-4.205,44.518-12.504,65.277
	c-0.133,0.998-0.379,1.989-0.741,2.949c-11.134,29.535-4.619,62.137,17.005,85.084c1.142,1.211,2.431,2.476,4.054,3.978
	c3.256,3.015,4.801,7.453,4.114,11.838c-0.685,4.385-3.507,8.141-7.528,10.02C441.07,576.163,425.195,579.679,409.408,579.679z
	 M342.172,525.22c3.463,0,6.869,1.349,9.423,3.9c15.428,15.414,35.96,23.904,57.813,23.904c5.691,0,11.393-0.604,16.965-1.781
	c-20.686-28.368-26.367-64.747-14.918-98.508c0.116-1.394,0.452-2.778,1.012-4.098c7.823-18.448,11.79-38.054,11.79-58.271
	c0-82.373-67.015-149.389-149.39-149.389c-12.27,0-24.293,1.455-35.964,4.344c47.113,32.507,76.278,86.691,76.278,145.045
	s-29.168,112.538-76.278,145.045c11.673,2.888,23.694,4.345,35.964,4.345c21.547,0,42.336-4.487,61.79-13.339
	C338.428,525.612,340.309,525.22,342.172,525.22z"/>
<path style="fill:#B2D9FF;" d="M210.997,350.29H62.612c-7.36,0-13.328-5.967-13.328-13.328c0-7.361,5.968-13.328,13.328-13.328
	h148.385c7.36,0,13.328,5.967,13.328,13.328C224.325,344.323,218.358,350.29,210.997,350.29z"/>
<path style="fill:#B2D9FF;" d="M210.997,407.404H62.612c-7.36,0-13.328-5.967-13.328-13.328s5.968-13.328,13.328-13.328h148.385
	c7.36,0,13.328,5.967,13.328,13.328S218.358,407.404,210.997,407.404z"/>
<path style="fill:#B2D9FF;" d="M151.021,464.519H62.612c-7.36,0-13.328-5.967-13.328-13.328c0-7.361,5.968-13.328,13.328-13.328
	h88.409c7.36,0,13.328,5.967,13.328,13.328C164.349,458.552,158.382,464.519,151.021,464.519z"/>
</svg>
