<?xml version="1.0" encoding="utf-8"?>
<!-- Generator: Adobe Illustrator 19.0.0, SVG Export Plug-In . SVG Version: 6.00 Build 0)  -->
<svg version="1.1" id="Layer_1" xmlns="http://www.w3.org/2000/svg" xmlns:xlink="http://www.w3.org/1999/xlink" x="0px" y="0px"
	 viewBox="-243 245 512 512" style="enable-background:new -243 245 512 512;" xml:space="preserve">
<style type="text/css">
	.st0{fill:#0E7886;}
	.st1{fill:#FFFFFF;}
	.st2{fill:#E04652;}
	.st3{fill:#FF5B61;}
	.st4{fill:#5DDDD3;}
</style>
<path class="st0" d="M13,757c141,0,256-115,256-256c0-141-115-256-256-256c-141,0-256,115-256,256C-243,642-128,757,13,757z"/>
<path class="st1" d="M-87.7,331c27,0,51.5,11,69.2,28.7c17.7,17.7,28.7,42.2,28.7,69.2s-11,51.5-28.7,69.2
	c-17.7,17.7-42.2,28.7-69.2,28.7c-27,0-51.5-11-69.2-28.7c-17.7-17.7-28.7-42.2-28.7-69.2s11-51.5,28.7-69.2
	C-139.3,341.9-114.8,331-87.7,331L-87.7,331z M-17.6,483L-17.6,483c-6.2-2.9-14.1-5.3-23.1-7c-0.8,1.8-1.7,3.5-2.6,5.2
	c-7.3,13.6-17.6,25.7-31,35.3c19.1-2.9,36.2-11.9,49.2-24.9C-22.4,488.9-19.9,486-17.6,483L-17.6,483z M-101.2,516.5L-101.2,516.5
	c-13.4-9.6-23.7-21.8-31-35.3c-0.9-1.7-1.8-3.4-2.6-5.2c-9,1.8-16.9,4.1-23.1,7c2.3,3,4.8,5.9,7.5,8.5
	C-137.4,504.6-120.3,513.6-101.2,516.5L-101.2,516.5z M-163.2,475.3L-163.2,475.3c6.7-3.3,15.2-6,24.8-8c-4-10.8-6.2-22.2-6.7-33.7
	h-31.1C-175.4,448.8-170.8,463-163.2,475.3z M-176.2,424.2L-176.2,424.2h31.1c0.5-12.5,3.1-24.9,7.7-36.6
	c-9.3-1.9-17.7-4.4-24.3-7.5C-170.2,392.9-175.4,408-176.2,424.2L-176.2,424.2z M-156.1,372.5L-156.1,372.5
	c6.2,2.7,13.9,4.8,22.6,6.4c0.5-1,1-2,1.5-2.9c7.3-13.3,17.5-25.3,30.7-34.7c-19,2.9-36.1,11.9-49.1,24.9
	C-152.4,368.2-154.3,370.3-156.1,372.5z M-74.2,341.3L-74.2,341.3c13.2,9.4,23.4,21.4,30.7,34.7c0.5,1,1,2,1.5,3
	c8.6-1.6,16.4-3.8,22.5-6.5c-1.8-2.2-3.7-4.3-5.7-6.3C-38.1,353.2-55.1,344.3-74.2,341.3z M-13.7,380.2L-13.7,380.2
	c-6.6,3.1-15,5.6-24.3,7.5c4.6,11.7,7.2,24.1,7.7,36.6H0.7C-0.1,408-5.3,392.9-13.7,380.2z M0.7,433.6L0.7,433.6h-31.1
	c-0.5,11.4-2.7,22.8-6.7,33.6c9.7,2,18.2,4.7,24.8,8C-4.7,463-0.1,448.8,0.7,433.6z M-83.1,346.5L-83.1,346.5v36.3
	c10.8-0.2,21.6-0.9,31.5-2.3l0-0.1C-58.9,367.2-69.4,355.4-83.1,346.5z M-83.1,392.1L-83.1,392.1v32.1h43.4
	c-0.5-12-3.1-23.8-7.7-34.9C-58.6,391-70.8,391.9-83.1,392.1z M-83.1,433.6L-83.1,433.6v29c12.7,0.2,25.3,1.2,36.7,3
	c3.9-10.2,6.2-21.1,6.7-32H-83.1L-83.1,433.6z M-83.1,471.9L-83.1,471.9v39.3c13.8-9.1,24.3-21,31.6-34.5c0.4-0.8,0.8-1.6,1.2-2.4
	C-60.5,472.9-71.7,472.1-83.1,471.9L-83.1,471.9z M-92.4,511.2L-92.4,511.2v-39.3c-11.3,0.2-22.5,1-32.8,2.5
	c0.4,0.8,0.8,1.6,1.2,2.4C-116.7,490.2-106.2,502.1-92.4,511.2z M-92.4,462.6L-92.4,462.6v-29h-43.4c0.5,10.9,2.7,21.7,6.7,32
	C-117.6,463.8-105.1,462.8-92.4,462.6z M-92.4,424.3L-92.4,424.3v-32.1c-12.3-0.2-24.5-1.1-35.7-2.9c-4.7,11.1-7.2,23-7.8,35H-92.4z
	 M-92.4,382.8L-92.4,382.8v-36.3c-13.7,8.9-24.2,20.7-31.4,33.9l0,0C-114,381.8-103.2,382.6-92.4,382.8z"/>
<path class="st2" d="M-154.8,460.4L13,559.5l-167.8,99.1V460.4z"/>
<path class="st3" d="M180.8,460.4h-335.7L13,559.5L180.8,460.4z"/>
<path class="st2" d="M180.8,460.4L13,559.5l167.8,99.1V460.4z"/>
<path class="st3" d="M13,559.5l-167.8,99.1h335.7L13,559.5z"/>
<path class="st3" d="M180.8,497c20.1,0,36.5-16.4,36.5-36.5c0-20.1-16.4-36.5-36.5-36.5s-36.5,16.4-36.5,36.5
	C144.3,480.6,160.7,497,180.8,497z"/>
<path class="st1" d="M154.1,467.5v-14.2h19.6v-19.6h14.2v19.6h19.6v14.2h-19.6v19.6h-14.2v-19.6H154.1L154.1,467.5z"/>
<path class="st4" d="M39.1,359.3h110.3v5.9H39.1V359.3z M39.1,423.7L39.1,423.7h69.2v5.9H39.1L39.1,423.7L39.1,423.7z M39.1,407.6
	L39.1,407.6h110.3v5.9H39.1V407.6z M39.1,391.5L39.1,391.5h88.5v5.9H39.1L39.1,391.5L39.1,391.5z M39.1,375.4L39.1,375.4h110.3v5.9
	H39.1V375.4z"/>
</svg>
