<svg xmlns="http://www.w3.org/2000/svg" width="37" height="37" viewBox="0 0 37 37">
  <defs>
    <style>
      .cls-1 {
        fill: #ffe084;
        fill-rule: evenodd;
      }
    </style>
  </defs>
  <path id="Infographic-3" class="cls-1" d="M493.149,1481a18.165,18.165,0,0,1-3.632-35.96,2.092,2.092,0,0,1,.836,4.1,13.983,13.983,0,1,0,16.506,16.51,2.091,2.091,0,0,1,4.1.83A18.208,18.208,0,0,1,493.149,1481ZM496,1445.67v12.72a1.609,1.609,0,0,0,1.608,1.61H510.38a1.612,1.612,0,0,0,1.608-1.8,16.1,16.1,0,0,0-14.171-14.19,1.615,1.615,0,0,0-1.817,1.6v0.06Z" transform="translate(-475 -1444)"/>
</svg>
