<svg xmlns="http://www.w3.org/2000/svg" width="42" height="31.75" viewBox="0 0 42 31.75">
  <defs>
    <style>
      .cls-1 {
        fill: #98f5d2;
        fill-rule: evenodd;
      }
    </style>
  </defs>
  <path id="Infographic-2" class="cls-1" d="M879.812,1478.76h0a4.679,4.679,0,0,1-4.812-4.53v-7.25a4.679,4.679,0,0,1,4.812-4.53h0a4.679,4.679,0,0,1,4.813,4.53v7.25a4.679,4.679,0,0,1-4.813,4.53h0Zm21.438-4.29v-12.02a4.574,4.574,0,0,0-4.813-4.29h0a4.573,4.573,0,0,0-4.812,4.29v12.02a4.573,4.573,0,0,0,4.812,4.29h0A4.574,4.574,0,0,0,901.25,1474.47Zm15.75-.12v-22.94a4.622,4.622,0,0,0-4.813-4.41h0a4.622,4.622,0,0,0-4.812,4.41v22.94a4.622,4.622,0,0,0,4.812,4.41h0A4.622,4.622,0,0,0,917,1474.35Z" transform="translate(-875 -1447)"/>
</svg>
