<svg xmlns="http://www.w3.org/2000/svg" width="36.53" height="36.09" viewBox="0 0 36.53 36.09">
  <defs>
    <style>
      .cls-1 {
        fill: #c763fd;
        fill-rule: evenodd;
        opacity: 0.35;
      }
    </style>
  </defs>
  <path id="Channel" class="cls-1" d="M1301.31,1473.23l3.32,3a3.338,3.338,0,0,1,1.1,2.89,3.4,3.4,0,0,1-1.77,2.56h0a3.525,3.525,0,0,1-4.03-.47l-4.99-4.48a3.26,3.26,0,0,0-3.66-.42h0a3.283,3.283,0,0,1-2.44.27,3.182,3.182,0,0,1-1.92-1.5l-2.32-4.07a4.574,4.574,0,0,1-.41-3.58,4.671,4.671,0,0,1,2.29-2.81l10.58-5.71a4.749,4.749,0,0,0,1.89-1.88l5.6-9.82a2.436,2.436,0,0,1,4.21,0l11.49,20.29a2.285,2.285,0,0,1-.13,2.46,2.414,2.414,0,0,1-2.31,1l-11.75-1.57a4.955,4.955,0,0,0-3,.55l-1.44.79a1.532,1.532,0,0,0-.31,2.5h0Z" transform="translate(-1284 -1446)"/>
</svg>
