<svg width="21" height="16" xmlns="http://www.w3.org/2000/svg"><g transform="translate(1)" fill="none" fill-rule="evenodd"><rect fill="#D9D9D9" x="3" width="13" height="13" rx="1"/><path d="M9.42 2.504a.659.659 0 0 0-.59.667v4.92L7.67 6.777a.666.666 0 0 0-1.165.508.656.656 0 0 0 .171.365l2.32 2.628a.667.667 0 0 0 .994 0l2.32-2.628a.654.654 0 0 0-.054-.93.668.668 0 0 0-.94.057l-1.16 1.314v-4.92a.66.66 0 0 0-.736-.667" fill="#FFF"/><path d="M.5 15h18" stroke="#D9D9D9" stroke-width="2" stroke-linecap="round"/></g></svg>