<svg width="21" height="16" xmlns="http://www.w3.org/2000/svg"><g fill="#D9D9D9" fill-rule="evenodd"><path d="M4.294 12.29c.98 0 1.777.82 1.777 1.828s-.797 1.829-1.777 1.829c-.98 0-1.777-.82-1.777-1.83 0-1.008.797-1.828 1.777-1.828zm11.984 0c.98 0 1.778.82 1.778 1.828s-.797 1.829-1.778 1.829c-.98 0-1.777-.82-1.777-1.83 0-1.008.797-1.828 1.777-1.828zM3.291 4.608a.693.693 0 0 1 .657-.487h.84v3.036H2.469l.822-2.55zM1.065 8.293h3.723v2.904a2.842 2.842 0 0 0-.494-.044c-1.485 0-2.712 1.162-2.866 2.648h-.13a.7.7 0 0 1-.691-.71V8.96c0-.309.191-.57.458-.668z"/><path d="M5.92.763a.7.7 0 0 1 .69-.71h13.33a.7.7 0 0 1 .692.71V13.09a.7.7 0 0 1-.691.71h-.796c-.154-1.485-1.38-2.647-2.867-2.647-1.485 0-2.711 1.162-2.866 2.648H7.16a2.98 2.98 0 0 0-1.267-2.148L5.92.763z"/></g></svg>